<?xml version="1.0" standalone="no"?>
<!DOCTYPE svg PUBLIC "-//W3C//DTD SVG 20010904//EN"
 "http://www.w3.org/TR/2001/REC-SVG-20010904/DTD/svg10.dtd">
<svg version="1.0" xmlns="http://www.w3.org/2000/svg"
 width="167.000000pt" height="140.000000pt" viewBox="0 0 167.000000 140.000000"
 preserveAspectRatio="xMidYMid meet">

<g transform="translate(0.000000,140.000000) scale(0.100000,-0.100000)"
fill="#000000" stroke="none">
<path d="M0 700 l0 -700 835 0 835 0 0 700 0 700 -835 0 -835 0 0 -700z m471
500 l137 -98 4 85 c3 76 6 87 27 104 17 14 33 18 50 14 21 -5 154 -97 611
-420 63 -45 145 -102 183 -129 37 -26 67 -50 67 -54 0 -4 -11 -14 -23 -23 -12
-8 -107 -76 -212 -149 -104 -74 -284 -200 -400 -282 -272 -192 -295 -194 -305
-33 l-5 83 -140 -99 c-142 -99 -183 -117 -213 -87 -9 9 -12 154 -12 589 l0
578 23 16 c13 9 32 13 46 10 13 -4 86 -51 162 -105z"/>
<path d="M360 700 l0 -421 58 41 c31 23 164 116 294 208 131 92 237 170 238
173 0 5 -531 384 -577 412 -11 7 -13 -65 -13 -413z"/>
<path d="M742 1064 l3 -57 210 -148 c115 -81 211 -151 212 -156 1 -4 -94 -75
-212 -158 l-214 -150 -1 -58 0 -58 68 48 c37 26 170 120 295 208 124 88 227
163 227 167 0 5 -523 378 -578 412 -10 6 -12 -4 -10 -50z"/>
</g>
</svg>
